<svg width="238" height="70" viewBox="0 0 238 70" fill="none" xmlns="http://www.w3.org/2000/svg">
<g filter="url(#filter0_d_25368_597)">
<rect width="218" height="50" rx="25" transform="matrix(1 0 0 -1 10 56)" fill="url(#paint0_linear_25368_597)"/>
</g>
<path d="M40.1953 34.4453V36H34.1562V34.4453H40.1953ZM34.7109 24.625V36H32.75V24.625H34.7109ZM39.4062 29.375V30.9062H34.1562V29.375H39.4062ZM40.1562 24.625V26.1875H34.1562V24.625H40.1562ZM43.0469 27.5469L44.6562 30.3516L46.2969 27.5469H48.3672L45.8047 31.6953L48.4688 36H46.3984L44.6797 33.0781L42.9609 36H40.8828L43.5391 31.6953L40.9844 27.5469H43.0469ZM51.5469 29.1719V39.25H49.6641V27.5469H51.3984L51.5469 29.1719ZM57.0547 31.6953V31.8594C57.0547 32.474 56.9818 33.0443 56.8359 33.5703C56.6953 34.0911 56.4844 34.5469 56.2031 34.9375C55.9271 35.3229 55.5859 35.6224 55.1797 35.8359C54.7734 36.0495 54.3047 36.1562 53.7734 36.1562C53.2474 36.1562 52.7865 36.0599 52.3906 35.8672C52 35.6693 51.6693 35.3906 51.3984 35.0312C51.1276 34.6719 50.9089 34.25 50.7422 33.7656C50.5807 33.276 50.4661 32.7396 50.3984 32.1562V31.5234C50.4661 30.9036 50.5807 30.3411 50.7422 29.8359C50.9089 29.3307 51.1276 28.8958 51.3984 28.5312C51.6693 28.1667 52 27.8854 52.3906 27.6875C52.7812 27.4896 53.237 27.3906 53.7578 27.3906C54.2891 27.3906 54.7604 27.4948 55.1719 27.7031C55.5833 27.9062 55.9297 28.1979 56.2109 28.5781C56.4922 28.9531 56.7031 29.4062 56.8438 29.9375C56.9844 30.4635 57.0547 31.0495 57.0547 31.6953ZM55.1719 31.8594V31.6953C55.1719 31.3047 55.1354 30.9427 55.0625 30.6094C54.9896 30.2708 54.875 29.974 54.7188 29.7188C54.5625 29.4635 54.362 29.2656 54.1172 29.125C53.8776 28.9792 53.5885 28.9062 53.25 28.9062C52.9167 28.9062 52.6302 28.9635 52.3906 29.0781C52.151 29.1875 51.9505 29.3411 51.7891 29.5391C51.6276 29.737 51.5026 29.9688 51.4141 30.2344C51.3255 30.4948 51.263 30.7786 51.2266 31.0859V32.6016C51.2891 32.9766 51.3958 33.3203 51.5469 33.6328C51.6979 33.9453 51.9115 34.1953 52.1875 34.3828C52.4688 34.5651 52.8281 34.6562 53.2656 34.6562C53.6042 34.6562 53.8932 34.5833 54.1328 34.4375C54.3724 34.2917 54.5677 34.0911 54.7188 33.8359C54.875 33.5755 54.9896 33.276 55.0625 32.9375C55.1354 32.599 55.1719 32.2396 55.1719 31.8594ZM60.6719 24V36H58.7812V24H60.6719ZM62.375 31.8672V31.6875C62.375 31.0781 62.4635 30.513 62.6406 29.9922C62.8177 29.4661 63.0729 29.0104 63.4062 28.625C63.7448 28.2344 64.1562 27.9323 64.6406 27.7188C65.1302 27.5 65.6823 27.3906 66.2969 27.3906C66.9167 27.3906 67.4688 27.5 67.9531 27.7188C68.4427 27.9323 68.8568 28.2344 69.1953 28.625C69.5339 29.0104 69.7917 29.4661 69.9688 29.9922C70.1458 30.513 70.2344 31.0781 70.2344 31.6875V31.8672C70.2344 32.4766 70.1458 33.0417 69.9688 33.5625C69.7917 34.0833 69.5339 34.5391 69.1953 34.9297C68.8568 35.3151 68.4453 35.6172 67.9609 35.8359C67.4766 36.0495 66.9271 36.1562 66.3125 36.1562C65.6927 36.1562 65.138 36.0495 64.6484 35.8359C64.1641 35.6172 63.7526 35.3151 63.4141 34.9297C63.0755 34.5391 62.8177 34.0833 62.6406 33.5625C62.4635 33.0417 62.375 32.4766 62.375 31.8672ZM64.2578 31.6875V31.8672C64.2578 32.2474 64.2969 32.6068 64.375 32.9453C64.4531 33.2839 64.5755 33.5807 64.7422 33.8359C64.9089 34.0911 65.1224 34.2917 65.3828 34.4375C65.6432 34.5833 65.9531 34.6562 66.3125 34.6562C66.6615 34.6562 66.9635 34.5833 67.2188 34.4375C67.4792 34.2917 67.6927 34.0911 67.8594 33.8359C68.026 33.5807 68.1484 33.2839 68.2266 32.9453C68.3099 32.6068 68.3516 32.2474 68.3516 31.8672V31.6875C68.3516 31.3125 68.3099 30.9583 68.2266 30.625C68.1484 30.2865 68.0234 29.987 67.8516 29.7266C67.6849 29.4661 67.4714 29.263 67.2109 29.1172C66.9557 28.9661 66.651 28.8906 66.2969 28.8906C65.9427 28.8906 65.6354 28.9661 65.375 29.1172C65.1198 29.263 64.9089 29.4661 64.7422 29.7266C64.5755 29.987 64.4531 30.2865 64.375 30.625C64.2969 30.9583 64.2578 31.3125 64.2578 31.6875ZM73.7031 29.1562V36H71.8203V27.5469H73.6172L73.7031 29.1562ZM76.2891 27.4922L76.2734 29.2422C76.1589 29.2214 76.0339 29.2057 75.8984 29.1953C75.7682 29.1849 75.638 29.1797 75.5078 29.1797C75.1849 29.1797 74.901 29.2266 74.6562 29.3203C74.4115 29.4089 74.2057 29.5391 74.0391 29.7109C73.8776 29.8776 73.7526 30.0807 73.6641 30.3203C73.5755 30.5599 73.5234 30.8281 73.5078 31.125L73.0781 31.1562C73.0781 30.625 73.1302 30.1328 73.2344 29.6797C73.3385 29.2266 73.4948 28.8281 73.7031 28.4844C73.9167 28.1406 74.1823 27.8724 74.5 27.6797C74.8229 27.487 75.1953 27.3906 75.6172 27.3906C75.7318 27.3906 75.8542 27.401 75.9844 27.4219C76.1198 27.4427 76.2214 27.4661 76.2891 27.4922ZM81.0391 36.1562C80.4141 36.1562 79.849 36.0547 79.3438 35.8516C78.8438 35.6432 78.4167 35.3542 78.0625 34.9844C77.7135 34.6146 77.4453 34.1797 77.2578 33.6797C77.0703 33.1797 76.9766 32.6406 76.9766 32.0625V31.75C76.9766 31.0885 77.0729 30.4896 77.2656 29.9531C77.4583 29.4167 77.7266 28.9583 78.0703 28.5781C78.4141 28.1927 78.8203 27.8984 79.2891 27.6953C79.7578 27.4922 80.2656 27.3906 80.8125 27.3906C81.4167 27.3906 81.9453 27.4922 82.3984 27.6953C82.8516 27.8984 83.2266 28.1849 83.5234 28.5547C83.8255 28.9193 84.0495 29.3542 84.1953 29.8594C84.3464 30.3646 84.4219 30.9219 84.4219 31.5312V32.3359H77.8906V30.9844H82.5625V30.8359C82.5521 30.4974 82.4844 30.1797 82.3594 29.8828C82.2396 29.5859 82.0547 29.3464 81.8047 29.1641C81.5547 28.9818 81.2214 28.8906 80.8047 28.8906C80.4922 28.8906 80.2135 28.9583 79.9688 29.0938C79.7292 29.224 79.5286 29.4141 79.3672 29.6641C79.2057 29.9141 79.0807 30.2161 78.9922 30.5703C78.9089 30.9193 78.8672 31.3125 78.8672 31.75V32.0625C78.8672 32.4323 78.9167 32.776 79.0156 33.0938C79.1198 33.4062 79.2708 33.6797 79.4688 33.9141C79.6667 34.1484 79.9062 34.3333 80.1875 34.4688C80.4688 34.599 80.7891 34.6641 81.1484 34.6641C81.6016 34.6641 82.0052 34.5729 82.3594 34.3906C82.7135 34.2083 83.0208 33.9505 83.2812 33.6172L84.2734 34.5781C84.0911 34.8438 83.8542 35.099 83.5625 35.3438C83.2708 35.5833 82.9141 35.7786 82.4922 35.9297C82.0755 36.0807 81.5911 36.1562 81.0391 36.1562ZM87.7812 29.1562V36H85.8984V27.5469H87.6953L87.7812 29.1562ZM90.3672 27.4922L90.3516 29.2422C90.237 29.2214 90.112 29.2057 89.9766 29.1953C89.8464 29.1849 89.7161 29.1797 89.5859 29.1797C89.263 29.1797 88.9792 29.2266 88.7344 29.3203C88.4896 29.4089 88.2839 29.5391 88.1172 29.7109C87.9557 29.8776 87.8307 30.0807 87.7422 30.3203C87.6536 30.5599 87.6016 30.8281 87.5859 31.125L87.1562 31.1562C87.1562 30.625 87.2083 30.1328 87.3125 29.6797C87.4167 29.2266 87.5729 28.8281 87.7812 28.4844C87.9948 28.1406 88.2604 27.8724 88.5781 27.6797C88.901 27.487 89.2734 27.3906 89.6953 27.3906C89.8099 27.3906 89.9323 27.401 90.0625 27.4219C90.1979 27.4427 90.2995 27.4661 90.3672 27.4922ZM97.3984 29.3516V36H95.5156V27.5469H97.2891L97.3984 29.3516ZM97.0625 31.4609L96.4531 31.4531C96.4583 30.8542 96.5417 30.3047 96.7031 29.8047C96.8698 29.3047 97.099 28.875 97.3906 28.5156C97.6875 28.1562 98.0417 27.8802 98.4531 27.6875C98.8646 27.4896 99.3229 27.3906 99.8281 27.3906C100.234 27.3906 100.602 27.4479 100.93 27.5625C101.263 27.6719 101.547 27.8516 101.781 28.1016C102.021 28.3516 102.203 28.6771 102.328 29.0781C102.453 29.474 102.516 29.9609 102.516 30.5391V36H100.625V30.5312C100.625 30.125 100.565 29.8047 100.445 29.5703C100.331 29.3307 100.161 29.1615 99.9375 29.0625C99.7188 28.9583 99.4453 28.9062 99.1172 28.9062C98.7943 28.9062 98.5052 28.974 98.25 29.1094C97.9948 29.2448 97.7786 29.4297 97.6016 29.6641C97.4297 29.8984 97.2969 30.1693 97.2031 30.4766C97.1094 30.7839 97.0625 31.112 97.0625 31.4609ZM104.078 31.8672V31.6875C104.078 31.0781 104.167 30.513 104.344 29.9922C104.521 29.4661 104.776 29.0104 105.109 28.625C105.448 28.2344 105.859 27.9323 106.344 27.7188C106.833 27.5 107.385 27.3906 108 27.3906C108.62 27.3906 109.172 27.5 109.656 27.7188C110.146 27.9323 110.56 28.2344 110.898 28.625C111.237 29.0104 111.495 29.4661 111.672 29.9922C111.849 30.513 111.938 31.0781 111.938 31.6875V31.8672C111.938 32.4766 111.849 33.0417 111.672 33.5625C111.495 34.0833 111.237 34.5391 110.898 34.9297C110.56 35.3151 110.148 35.6172 109.664 35.8359C109.18 36.0495 108.63 36.1562 108.016 36.1562C107.396 36.1562 106.841 36.0495 106.352 35.8359C105.867 35.6172 105.456 35.3151 105.117 34.9297C104.779 34.5391 104.521 34.0833 104.344 33.5625C104.167 33.0417 104.078 32.4766 104.078 31.8672ZM105.961 31.6875V31.8672C105.961 32.2474 106 32.6068 106.078 32.9453C106.156 33.2839 106.279 33.5807 106.445 33.8359C106.612 34.0911 106.826 34.2917 107.086 34.4375C107.346 34.5833 107.656 34.6562 108.016 34.6562C108.365 34.6562 108.667 34.5833 108.922 34.4375C109.182 34.2917 109.396 34.0911 109.562 33.8359C109.729 33.5807 109.852 33.2839 109.93 32.9453C110.013 32.6068 110.055 32.2474 110.055 31.8672V31.6875C110.055 31.3125 110.013 30.9583 109.93 30.625C109.852 30.2865 109.727 29.987 109.555 29.7266C109.388 29.4661 109.174 29.263 108.914 29.1172C108.659 28.9661 108.354 28.8906 108 28.8906C107.646 28.8906 107.339 28.9661 107.078 29.1172C106.823 29.263 106.612 29.4661 106.445 29.7266C106.279 29.987 106.156 30.2865 106.078 30.625C106 30.9583 105.961 31.3125 105.961 31.6875ZM118.258 33.7109C118.258 33.5234 118.211 33.3542 118.117 33.2031C118.023 33.0469 117.844 32.9062 117.578 32.7812C117.318 32.6562 116.932 32.5417 116.422 32.4375C115.974 32.3385 115.562 32.2214 115.188 32.0859C114.818 31.9453 114.5 31.776 114.234 31.5781C113.969 31.3802 113.763 31.1458 113.617 30.875C113.471 30.6042 113.398 30.2917 113.398 29.9375C113.398 29.5938 113.474 29.2682 113.625 28.9609C113.776 28.6536 113.992 28.3828 114.273 28.1484C114.555 27.9141 114.896 27.7292 115.297 27.5938C115.703 27.4583 116.156 27.3906 116.656 27.3906C117.365 27.3906 117.971 27.5104 118.477 27.75C118.987 27.9844 119.378 28.3047 119.648 28.7109C119.919 29.112 120.055 29.5651 120.055 30.0703H118.172C118.172 29.8464 118.115 29.638 118 29.4453C117.891 29.2474 117.724 29.0885 117.5 28.9688C117.276 28.8438 116.995 28.7812 116.656 28.7812C116.333 28.7812 116.065 28.8333 115.852 28.9375C115.643 29.0365 115.487 29.1667 115.383 29.3281C115.284 29.4896 115.234 29.6667 115.234 29.8594C115.234 30 115.26 30.1276 115.312 30.2422C115.37 30.3516 115.464 30.4531 115.594 30.5469C115.724 30.6354 115.901 30.7188 116.125 30.7969C116.354 30.875 116.641 30.9505 116.984 31.0234C117.63 31.1589 118.185 31.3333 118.648 31.5469C119.117 31.7552 119.477 32.026 119.727 32.3594C119.977 32.6875 120.102 33.1042 120.102 33.6094C120.102 33.9844 120.021 34.3281 119.859 34.6406C119.703 34.9479 119.474 35.2161 119.172 35.4453C118.87 35.6693 118.508 35.8438 118.086 35.9688C117.669 36.0938 117.201 36.1562 116.68 36.1562C115.914 36.1562 115.266 36.0208 114.734 35.75C114.203 35.474 113.799 35.1224 113.523 34.6953C113.253 34.263 113.117 33.8151 113.117 33.3516H114.938C114.958 33.7005 115.055 33.9792 115.227 34.1875C115.404 34.3906 115.622 34.5391 115.883 34.6328C116.148 34.7214 116.422 34.7656 116.703 34.7656C117.042 34.7656 117.326 34.7214 117.555 34.6328C117.784 34.5391 117.958 34.4141 118.078 34.2578C118.198 34.0964 118.258 33.9141 118.258 33.7109ZM127.625 29.1562V36H125.742V27.5469H127.539L127.625 29.1562ZM130.211 27.4922L130.195 29.2422C130.081 29.2214 129.956 29.2057 129.82 29.1953C129.69 29.1849 129.56 29.1797 129.43 29.1797C129.107 29.1797 128.823 29.2266 128.578 29.3203C128.333 29.4089 128.128 29.5391 127.961 29.7109C127.799 29.8776 127.674 30.0807 127.586 30.3203C127.497 30.5599 127.445 30.8281 127.43 31.125L127 31.1562C127 30.625 127.052 30.1328 127.156 29.6797C127.26 29.2266 127.417 28.8281 127.625 28.4844C127.839 28.1406 128.104 27.8724 128.422 27.6797C128.745 27.487 129.117 27.3906 129.539 27.3906C129.654 27.3906 129.776 27.401 129.906 27.4219C130.042 27.4427 130.143 27.4661 130.211 27.4922ZM134.961 36.1562C134.336 36.1562 133.771 36.0547 133.266 35.8516C132.766 35.6432 132.339 35.3542 131.984 34.9844C131.635 34.6146 131.367 34.1797 131.18 33.6797C130.992 33.1797 130.898 32.6406 130.898 32.0625V31.75C130.898 31.0885 130.995 30.4896 131.188 29.9531C131.38 29.4167 131.648 28.9583 131.992 28.5781C132.336 28.1927 132.742 27.8984 133.211 27.6953C133.68 27.4922 134.188 27.3906 134.734 27.3906C135.339 27.3906 135.867 27.4922 136.32 27.6953C136.773 27.8984 137.148 28.1849 137.445 28.5547C137.747 28.9193 137.971 29.3542 138.117 29.8594C138.268 30.3646 138.344 30.9219 138.344 31.5312V32.3359H131.812V30.9844H136.484V30.8359C136.474 30.4974 136.406 30.1797 136.281 29.8828C136.161 29.5859 135.977 29.3464 135.727 29.1641C135.477 28.9818 135.143 28.8906 134.727 28.8906C134.414 28.8906 134.135 28.9583 133.891 29.0938C133.651 29.224 133.451 29.4141 133.289 29.6641C133.128 29.9141 133.003 30.2161 132.914 30.5703C132.831 30.9193 132.789 31.3125 132.789 31.75V32.0625C132.789 32.4323 132.839 32.776 132.938 33.0938C133.042 33.4062 133.193 33.6797 133.391 33.9141C133.589 34.1484 133.828 34.3333 134.109 34.4688C134.391 34.599 134.711 34.6641 135.07 34.6641C135.523 34.6641 135.927 34.5729 136.281 34.3906C136.635 34.2083 136.943 33.9505 137.203 33.6172L138.195 34.5781C138.013 34.8438 137.776 35.099 137.484 35.3438C137.193 35.5833 136.836 35.7786 136.414 35.9297C135.997 36.0807 135.513 36.1562 134.961 36.1562ZM144.555 33.7109C144.555 33.5234 144.508 33.3542 144.414 33.2031C144.32 33.0469 144.141 32.9062 143.875 32.7812C143.615 32.6562 143.229 32.5417 142.719 32.4375C142.271 32.3385 141.859 32.2214 141.484 32.0859C141.115 31.9453 140.797 31.776 140.531 31.5781C140.266 31.3802 140.06 31.1458 139.914 30.875C139.768 30.6042 139.695 30.2917 139.695 29.9375C139.695 29.5938 139.771 29.2682 139.922 28.9609C140.073 28.6536 140.289 28.3828 140.57 28.1484C140.852 27.9141 141.193 27.7292 141.594 27.5938C142 27.4583 142.453 27.3906 142.953 27.3906C143.661 27.3906 144.268 27.5104 144.773 27.75C145.284 27.9844 145.674 28.3047 145.945 28.7109C146.216 29.112 146.352 29.5651 146.352 30.0703H144.469C144.469 29.8464 144.411 29.638 144.297 29.4453C144.188 29.2474 144.021 29.0885 143.797 28.9688C143.573 28.8438 143.292 28.7812 142.953 28.7812C142.63 28.7812 142.362 28.8333 142.148 28.9375C141.94 29.0365 141.784 29.1667 141.68 29.3281C141.581 29.4896 141.531 29.6667 141.531 29.8594C141.531 30 141.557 30.1276 141.609 30.2422C141.667 30.3516 141.76 30.4531 141.891 30.5469C142.021 30.6354 142.198 30.7188 142.422 30.7969C142.651 30.875 142.938 30.9505 143.281 31.0234C143.927 31.1589 144.482 31.3333 144.945 31.5469C145.414 31.7552 145.773 32.026 146.023 32.3594C146.273 32.6875 146.398 33.1042 146.398 33.6094C146.398 33.9844 146.318 34.3281 146.156 34.6406C146 34.9479 145.771 35.2161 145.469 35.4453C145.167 35.6693 144.805 35.8438 144.383 35.9688C143.966 36.0938 143.497 36.1562 142.977 36.1562C142.211 36.1562 141.562 36.0208 141.031 35.75C140.5 35.474 140.096 35.1224 139.82 34.6953C139.549 34.263 139.414 33.8151 139.414 33.3516H141.234C141.255 33.7005 141.352 33.9792 141.523 34.1875C141.701 34.3906 141.919 34.5391 142.18 34.6328C142.445 34.7214 142.719 34.7656 143 34.7656C143.339 34.7656 143.622 34.7214 143.852 34.6328C144.081 34.5391 144.255 34.4141 144.375 34.2578C144.495 34.0964 144.555 33.9141 144.555 33.7109ZM151.922 27.5469V28.9219H147.156V27.5469H151.922ZM148.531 25.4766H150.414V33.6641C150.414 33.9245 150.451 34.125 150.523 34.2656C150.602 34.401 150.708 34.4922 150.844 34.5391C150.979 34.5859 151.138 34.6094 151.32 34.6094C151.451 34.6094 151.576 34.6016 151.695 34.5859C151.815 34.5703 151.911 34.5547 151.984 34.5391L151.992 35.9766C151.836 36.0234 151.654 36.0651 151.445 36.1016C151.242 36.138 151.008 36.1562 150.742 36.1562C150.31 36.1562 149.927 36.0807 149.594 35.9297C149.26 35.7734 149 35.5208 148.812 35.1719C148.625 34.8229 148.531 34.3594 148.531 33.7812V25.4766ZM158.141 34.3047V30.2734C158.141 29.9714 158.086 29.7109 157.977 29.4922C157.867 29.2734 157.701 29.1042 157.477 28.9844C157.258 28.8646 156.982 28.8047 156.648 28.8047C156.341 28.8047 156.076 28.8568 155.852 28.9609C155.628 29.0651 155.453 29.2057 155.328 29.3828C155.203 29.5599 155.141 29.7604 155.141 29.9844H153.266C153.266 29.651 153.346 29.3281 153.508 29.0156C153.669 28.7031 153.904 28.4245 154.211 28.1797C154.518 27.9349 154.885 27.7422 155.312 27.6016C155.74 27.4609 156.219 27.3906 156.75 27.3906C157.385 27.3906 157.948 27.4974 158.438 27.7109C158.932 27.9245 159.32 28.2474 159.602 28.6797C159.888 29.1068 160.031 29.6432 160.031 30.2891V34.0469C160.031 34.4323 160.057 34.7786 160.109 35.0859C160.167 35.388 160.247 35.651 160.352 35.875V36H158.422C158.333 35.7969 158.263 35.5391 158.211 35.2266C158.164 34.9089 158.141 34.6016 158.141 34.3047ZM158.414 30.8594L158.43 32.0234H157.078C156.729 32.0234 156.422 32.0573 156.156 32.125C155.891 32.1875 155.669 32.2812 155.492 32.4062C155.315 32.5312 155.182 32.6823 155.094 32.8594C155.005 33.0365 154.961 33.237 154.961 33.4609C154.961 33.6849 155.013 33.8906 155.117 34.0781C155.221 34.2604 155.372 34.4036 155.57 34.5078C155.773 34.612 156.018 34.6641 156.305 34.6641C156.69 34.6641 157.026 34.5859 157.312 34.4297C157.604 34.2682 157.833 34.0729 158 33.8438C158.167 33.6094 158.255 33.388 158.266 33.1797L158.875 34.0156C158.812 34.2292 158.706 34.4583 158.555 34.7031C158.404 34.9479 158.206 35.1823 157.961 35.4062C157.721 35.625 157.432 35.8047 157.094 35.9453C156.76 36.0859 156.375 36.1562 155.938 36.1562C155.385 36.1562 154.893 36.0469 154.461 35.8281C154.029 35.6042 153.69 35.3047 153.445 34.9297C153.201 34.5495 153.078 34.1198 153.078 33.6406C153.078 33.1927 153.161 32.7969 153.328 32.4531C153.5 32.1042 153.75 31.8125 154.078 31.5781C154.411 31.3438 154.818 31.1667 155.297 31.0469C155.776 30.9219 156.323 30.8594 156.938 30.8594H158.414ZM167.086 34.0078V27.5469H168.977V36H167.195L167.086 34.0078ZM167.352 32.25L167.984 32.2344C167.984 32.8021 167.922 33.3255 167.797 33.8047C167.672 34.2786 167.479 34.6927 167.219 35.0469C166.958 35.3958 166.625 35.6693 166.219 35.8672C165.812 36.0599 165.326 36.1562 164.758 36.1562C164.346 36.1562 163.969 36.0964 163.625 35.9766C163.281 35.8568 162.984 35.6719 162.734 35.4219C162.49 35.1719 162.299 34.8464 162.164 34.4453C162.029 34.0443 161.961 33.5651 161.961 33.0078V27.5469H163.844V33.0234C163.844 33.3307 163.88 33.5885 163.953 33.7969C164.026 34 164.125 34.1641 164.25 34.2891C164.375 34.4141 164.521 34.5026 164.688 34.5547C164.854 34.6068 165.031 34.6328 165.219 34.6328C165.755 34.6328 166.177 34.5286 166.484 34.3203C166.797 34.1068 167.018 33.8203 167.148 33.4609C167.284 33.1016 167.352 32.6979 167.352 32.25ZM172.797 29.1562V36H170.914V27.5469H172.711L172.797 29.1562ZM175.383 27.4922L175.367 29.2422C175.253 29.2214 175.128 29.2057 174.992 29.1953C174.862 29.1849 174.732 29.1797 174.602 29.1797C174.279 29.1797 173.995 29.2266 173.75 29.3203C173.505 29.4089 173.299 29.5391 173.133 29.7109C172.971 29.8776 172.846 30.0807 172.758 30.3203C172.669 30.5599 172.617 30.8281 172.602 31.125L172.172 31.1562C172.172 30.625 172.224 30.1328 172.328 29.6797C172.432 29.2266 172.589 28.8281 172.797 28.4844C173.01 28.1406 173.276 27.8724 173.594 27.6797C173.917 27.487 174.289 27.3906 174.711 27.3906C174.826 27.3906 174.948 27.401 175.078 27.4219C175.214 27.4427 175.315 27.4661 175.383 27.4922ZM181.047 34.3047V30.2734C181.047 29.9714 180.992 29.7109 180.883 29.4922C180.773 29.2734 180.607 29.1042 180.383 28.9844C180.164 28.8646 179.888 28.8047 179.555 28.8047C179.247 28.8047 178.982 28.8568 178.758 28.9609C178.534 29.0651 178.359 29.2057 178.234 29.3828C178.109 29.5599 178.047 29.7604 178.047 29.9844H176.172C176.172 29.651 176.253 29.3281 176.414 29.0156C176.576 28.7031 176.81 28.4245 177.117 28.1797C177.424 27.9349 177.792 27.7422 178.219 27.6016C178.646 27.4609 179.125 27.3906 179.656 27.3906C180.292 27.3906 180.854 27.4974 181.344 27.7109C181.839 27.9245 182.227 28.2474 182.508 28.6797C182.794 29.1068 182.938 29.6432 182.938 30.2891V34.0469C182.938 34.4323 182.964 34.7786 183.016 35.0859C183.073 35.388 183.154 35.651 183.258 35.875V36H181.328C181.24 35.7969 181.169 35.5391 181.117 35.2266C181.07 34.9089 181.047 34.6016 181.047 34.3047ZM181.32 30.8594L181.336 32.0234H179.984C179.635 32.0234 179.328 32.0573 179.062 32.125C178.797 32.1875 178.576 32.2812 178.398 32.4062C178.221 32.5312 178.089 32.6823 178 32.8594C177.911 33.0365 177.867 33.237 177.867 33.4609C177.867 33.6849 177.919 33.8906 178.023 34.0781C178.128 34.2604 178.279 34.4036 178.477 34.5078C178.68 34.612 178.924 34.6641 179.211 34.6641C179.596 34.6641 179.932 34.5859 180.219 34.4297C180.51 34.2682 180.74 34.0729 180.906 33.8438C181.073 33.6094 181.161 33.388 181.172 33.1797L181.781 34.0156C181.719 34.2292 181.612 34.4583 181.461 34.7031C181.31 34.9479 181.112 35.1823 180.867 35.4062C180.628 35.625 180.339 35.8047 180 35.9453C179.667 36.0859 179.281 36.1562 178.844 36.1562C178.292 36.1562 177.799 36.0469 177.367 35.8281C176.935 35.6042 176.596 35.3047 176.352 34.9297C176.107 34.5495 175.984 34.1198 175.984 33.6406C175.984 33.1927 176.068 32.7969 176.234 32.4531C176.406 32.1042 176.656 31.8125 176.984 31.5781C177.318 31.3438 177.724 31.1667 178.203 31.0469C178.682 30.9219 179.229 30.8594 179.844 30.8594H181.32ZM186.773 29.3516V36H184.891V27.5469H186.664L186.773 29.3516ZM186.438 31.4609L185.828 31.4531C185.833 30.8542 185.917 30.3047 186.078 29.8047C186.245 29.3047 186.474 28.875 186.766 28.5156C187.062 28.1562 187.417 27.8802 187.828 27.6875C188.24 27.4896 188.698 27.3906 189.203 27.3906C189.609 27.3906 189.977 27.4479 190.305 27.5625C190.638 27.6719 190.922 27.8516 191.156 28.1016C191.396 28.3516 191.578 28.6771 191.703 29.0781C191.828 29.474 191.891 29.9609 191.891 30.5391V36H190V30.5312C190 30.125 189.94 29.8047 189.82 29.5703C189.706 29.3307 189.536 29.1615 189.312 29.0625C189.094 28.9583 188.82 28.9062 188.492 28.9062C188.169 28.9062 187.88 28.974 187.625 29.1094C187.37 29.2448 187.154 29.4297 186.977 29.6641C186.805 29.8984 186.672 30.1693 186.578 30.4766C186.484 30.7839 186.438 31.112 186.438 31.4609ZM197.688 27.5469V28.9219H192.922V27.5469H197.688ZM194.297 25.4766H196.18V33.6641C196.18 33.9245 196.216 34.125 196.289 34.2656C196.367 34.401 196.474 34.4922 196.609 34.5391C196.745 34.5859 196.904 34.6094 197.086 34.6094C197.216 34.6094 197.341 34.6016 197.461 34.5859C197.581 34.5703 197.677 34.5547 197.75 34.5391L197.758 35.9766C197.602 36.0234 197.419 36.0651 197.211 36.1016C197.008 36.138 196.773 36.1562 196.508 36.1562C196.076 36.1562 195.693 36.0807 195.359 35.9297C195.026 35.7734 194.766 35.5208 194.578 35.1719C194.391 34.8229 194.297 34.3594 194.297 33.7812V25.4766ZM203.883 33.7109C203.883 33.5234 203.836 33.3542 203.742 33.2031C203.648 33.0469 203.469 32.9062 203.203 32.7812C202.943 32.6562 202.557 32.5417 202.047 32.4375C201.599 32.3385 201.188 32.2214 200.812 32.0859C200.443 31.9453 200.125 31.776 199.859 31.5781C199.594 31.3802 199.388 31.1458 199.242 30.875C199.096 30.6042 199.023 30.2917 199.023 29.9375C199.023 29.5938 199.099 29.2682 199.25 28.9609C199.401 28.6536 199.617 28.3828 199.898 28.1484C200.18 27.9141 200.521 27.7292 200.922 27.5938C201.328 27.4583 201.781 27.3906 202.281 27.3906C202.99 27.3906 203.596 27.5104 204.102 27.75C204.612 27.9844 205.003 28.3047 205.273 28.7109C205.544 29.112 205.68 29.5651 205.68 30.0703H203.797C203.797 29.8464 203.74 29.638 203.625 29.4453C203.516 29.2474 203.349 29.0885 203.125 28.9688C202.901 28.8438 202.62 28.7812 202.281 28.7812C201.958 28.7812 201.69 28.8333 201.477 28.9375C201.268 29.0365 201.112 29.1667 201.008 29.3281C200.909 29.4896 200.859 29.6667 200.859 29.8594C200.859 30 200.885 30.1276 200.938 30.2422C200.995 30.3516 201.089 30.4531 201.219 30.5469C201.349 30.6354 201.526 30.7188 201.75 30.7969C201.979 30.875 202.266 30.9505 202.609 31.0234C203.255 31.1589 203.81 31.3333 204.273 31.5469C204.742 31.7552 205.102 32.026 205.352 32.3594C205.602 32.6875 205.727 33.1042 205.727 33.6094C205.727 33.9844 205.646 34.3281 205.484 34.6406C205.328 34.9479 205.099 35.2161 204.797 35.4453C204.495 35.6693 204.133 35.8438 203.711 35.9688C203.294 36.0938 202.826 36.1562 202.305 36.1562C201.539 36.1562 200.891 36.0208 200.359 35.75C199.828 35.474 199.424 35.1224 199.148 34.6953C198.878 34.263 198.742 33.8151 198.742 33.3516H200.562C200.583 33.7005 200.68 33.9792 200.852 34.1875C201.029 34.3906 201.247 34.5391 201.508 34.6328C201.773 34.7214 202.047 34.7656 202.328 34.7656C202.667 34.7656 202.951 34.7214 203.18 34.6328C203.409 34.5391 203.583 34.4141 203.703 34.2578C203.823 34.0964 203.883 33.9141 203.883 33.7109Z" fill="white"/>
<defs>
<filter id="filter0_d_25368_597" x="0" y="0" width="238" height="70" filterUnits="userSpaceOnUse" color-interpolation-filters="sRGB">
<feFlood flood-opacity="0" result="BackgroundImageFix"/>
<feColorMatrix in="SourceAlpha" type="matrix" values="0 0 0 0 0 0 0 0 0 0 0 0 0 0 0 0 0 0 127 0" result="hardAlpha"/>
<feOffset dy="4"/>
<feGaussianBlur stdDeviation="5"/>
<feColorMatrix type="matrix" values="0 0 0 0 0 0 0 0 0 0 0 0 0 0 0 0 0 0 0.25 0"/>
<feBlend mode="normal" in2="BackgroundImageFix" result="effect1_dropShadow_25368_597"/>
<feBlend mode="normal" in="SourceGraphic" in2="effect1_dropShadow_25368_597" result="shape"/>
</filter>
<linearGradient id="paint0_linear_25368_597" x1="109" y1="-13" x2="104.464" y2="70.4746" gradientUnits="userSpaceOnUse">
<stop stop-color="#9356DC"/>
<stop offset="1" stop-color="#FF79DA"/>
</linearGradient>
</defs>
</svg>
